%FSTAX23Y23*%
%MOIN*%
%SFA1B1*%

%IPPOS*%
%ADD10R,0.084645X0.248031*%
%ADD11R,0.059055X0.059055*%
%ADD12R,0.070000X0.050000*%
%ADD13R,0.051181X0.059055*%
%ADD14R,0.161417X0.078740*%
%ADD15R,0.100000X0.090000*%
%ADD16R,0.050000X0.050000*%
%ADD17R,0.059055X0.051181*%
%ADD18R,0.041339X0.094488*%
%ADD19R,0.419291X0.350393*%
%ADD20R,0.050000X0.050000*%
%ADD21O,0.064960X0.021654*%
%ADD22O,0.021654X0.064960*%
%ADD23R,0.055000X0.150000*%
%ADD24R,0.059055X0.039370*%
%ADD27C,0.003937*%
%ADD28C,0.010000*%
%ADD29C,0.078740*%
%ADD30C,0.059055*%
%ADD31R,0.059055X0.059055*%
%ADD32C,0.060000*%
%ADD33C,0.080000*%
%ADD34C,0.118110*%
%ADD35R,0.120000X0.120000*%
%ADD36C,0.120000*%
%ADD37R,0.120000X0.120000*%
%LNdesafio_hardware_firmware_nathania-1*%
%LPD*%
G54D10*
X01686Y03615D03*
X01973D03*
G54D11*
X0435Y02875D03*
Y02737D03*
G54D12*
X0446Y02295D03*
Y02365D03*
G54D13*
X03222Y0222D03*
X03147D03*
X03812Y0326D03*
X03737D03*
X04312Y02455D03*
X04237D03*
G54D14*
X02603Y03095D03*
X02256D03*
X01646D03*
X01993D03*
G54D15*
X02085Y0254D03*
X02485D03*
X02085Y02335D03*
X02485D03*
G54D16*
X04135Y02995D03*
Y03085D03*
G54D17*
X0414Y0273D03*
Y02655D03*
X053Y0244D03*
Y02515D03*
X05305Y03377D03*
Y03302D03*
G54D18*
X0244Y04352D03*
X0264D03*
G54D19*
X0254Y04759D03*
G54D20*
X058Y0256D03*
X0571D03*
X05515D03*
X05605D03*
G54D21*
X05494Y02975D03*
Y02943D03*
Y02912D03*
Y0288D03*
Y02849D03*
Y02817D03*
Y02786D03*
Y02754D03*
X05825D03*
Y02786D03*
Y02817D03*
Y02849D03*
Y0288D03*
Y02912D03*
Y02943D03*
Y02975D03*
G54D22*
X05549Y02699D03*
X05581D03*
X05612D03*
X05644D03*
X05675D03*
X05707D03*
X05738D03*
X0577D03*
Y0303D03*
X05738D03*
X05707D03*
X05675D03*
X05644D03*
X05612D03*
X05581D03*
X05549D03*
G54D23*
X053Y03135D03*
Y02685D03*
G54D24*
X018Y0427D03*
X01945D03*
G54D27*
X04342Y02806D02*
X04357D01*
X0435Y02798D02*
Y02813D01*
X02332Y04513D02*
X02747D01*
X02332Y04868D02*
X02747D01*
X02332Y04513D02*
Y04868D01*
X02747Y04513D02*
Y04868D01*
X02321Y04295D02*
X02758D01*
X02321Y04944D02*
X02758D01*
X02321Y04295D02*
Y04944D01*
X02758Y04295D02*
Y04944D01*
X0254Y046D02*
Y04639D01*
X0252Y0462D02*
X02559D01*
G54D28*
X0151Y04995D02*
X06995D01*
Y0211D02*
Y04995D01*
X0151Y0211D02*
X06995D01*
X0151D02*
Y04995D01*
G54D29*
X02969Y02485D03*
X03069D03*
X0367D03*
X0387D03*
Y03085D03*
X0367D03*
X03069D03*
X02969D03*
G54D30*
X06385Y02455D03*
Y02355D03*
X06285Y02455D03*
Y02355D03*
X06185Y02455D03*
X04015Y04825D03*
X04115D03*
X04215D03*
X04315D03*
X04415D03*
X04515D03*
X04615D03*
X04715D03*
X04815D03*
X04915D03*
X05015D03*
X05115D03*
X05215D03*
X05315D03*
X05415D03*
X05515D03*
G54D31*
X06185Y02355D03*
G54D32*
X053Y0281D03*
Y0301D03*
G54D33*
X0642Y02755D03*
X0617D03*
X0642Y0293D03*
X0617D03*
G54D34*
X0334Y04815D03*
X0354D03*
X0314D03*
G54D35*
X01945Y0477D03*
G54D36*
X01745Y0477D03*
X0178Y02345D03*
G54D37*
X0178Y02545D03*
M02*