%FSTAX23Y23*%
%MOIN*%
%SFA1B1*%

%IPPOS*%
%ADD27C,0.003937*%
%ADD28C,0.010000*%
%ADD47R,0.092645X0.256031*%
%ADD48R,0.067055X0.067055*%
%ADD49R,0.078000X0.058000*%
%ADD50R,0.059181X0.067055*%
%ADD51R,0.169417X0.086740*%
%ADD52R,0.108000X0.098000*%
%ADD53R,0.058000X0.058000*%
%ADD54R,0.067055X0.059181*%
%ADD55R,0.049338X0.102488*%
%ADD56R,0.427290X0.358393*%
%ADD57R,0.058000X0.058000*%
%ADD58O,0.072960X0.029653*%
%ADD59O,0.029653X0.072960*%
%ADD60R,0.063000X0.158000*%
%ADD61R,0.067055X0.047370*%
%ADD62C,0.086740*%
%ADD63C,0.067055*%
%ADD64R,0.067055X0.067055*%
%ADD65C,0.068000*%
%ADD66C,0.088000*%
%ADD67C,0.126110*%
%ADD68R,0.128000X0.128000*%
%ADD69C,0.128000*%
%ADD70R,0.128000X0.128000*%
%ADD71C,0.110362*%
%ADD72C,0.033000*%
%ADD73C,0.058000*%
%LNdesafio_hardware_firmware_nathania-1*%
%LPD*%
G54D27*
X04342Y02806D02*
X04357D01*
X0435Y02798D02*
Y02813D01*
X02332Y04513D02*
X02747D01*
X02332Y04868D02*
X02747D01*
X02332Y04513D02*
Y04868D01*
X02747Y04513D02*
Y04868D01*
X02321Y04295D02*
X02758D01*
X02321Y04944D02*
X02758D01*
X02321Y04295D02*
Y04944D01*
X02758Y04295D02*
Y04944D01*
X0254Y046D02*
Y04639D01*
X0252Y0462D02*
X02559D01*
G54D28*
X0151Y04995D02*
X06995D01*
Y0211D02*
Y04995D01*
X0151Y0211D02*
X06995D01*
X0151D02*
Y04995D01*
G54D47*
X01686Y03615D03*
X01973D03*
G54D48*
X0435Y02875D03*
Y02737D03*
G54D49*
X0446Y02295D03*
Y02365D03*
G54D50*
X03222Y0222D03*
X03147D03*
X03812Y0326D03*
X03737D03*
X04312Y02455D03*
X04237D03*
G54D51*
X02603Y03095D03*
X02256D03*
X01646D03*
X01993D03*
G54D52*
X02085Y0254D03*
X02485D03*
X02085Y02335D03*
X02485D03*
G54D53*
X04135Y02995D03*
Y03085D03*
G54D54*
X0414Y0273D03*
Y02655D03*
X053Y0244D03*
Y02515D03*
X05305Y03377D03*
Y03302D03*
G54D55*
X0244Y04352D03*
X0264D03*
G54D56*
X0254Y04759D03*
G54D57*
X058Y0256D03*
X0571D03*
X05515D03*
X05605D03*
G54D58*
X05494Y02975D03*
Y02943D03*
Y02912D03*
Y0288D03*
Y02849D03*
Y02817D03*
Y02786D03*
Y02754D03*
X05825D03*
Y02786D03*
Y02817D03*
Y02849D03*
Y0288D03*
Y02912D03*
Y02943D03*
Y02975D03*
G54D59*
X05549Y02699D03*
X05581D03*
X05612D03*
X05644D03*
X05675D03*
X05707D03*
X05738D03*
X0577D03*
Y0303D03*
X05738D03*
X05707D03*
X05675D03*
X05644D03*
X05612D03*
X05581D03*
X05549D03*
G54D60*
X053Y03135D03*
Y02685D03*
G54D61*
X018Y0427D03*
X01945D03*
G54D62*
X02969Y02485D03*
X03069D03*
X0367D03*
X0387D03*
Y03085D03*
X0367D03*
X03069D03*
X02969D03*
G54D63*
X06385Y02455D03*
Y02355D03*
X06285Y02455D03*
Y02355D03*
X06185Y02455D03*
X04015Y04825D03*
X04115D03*
X04215D03*
X04315D03*
X04415D03*
X04515D03*
X04615D03*
X04715D03*
X04815D03*
X04915D03*
X05015D03*
X05115D03*
X05215D03*
X05315D03*
X05415D03*
X05515D03*
G54D64*
X06185Y02355D03*
G54D65*
X053Y0281D03*
Y0301D03*
G54D66*
X0642Y02755D03*
X0617D03*
X0642Y0293D03*
X0617D03*
G54D67*
X0334Y04815D03*
X0354D03*
X0314D03*
G54D68*
X01945Y0477D03*
G54D69*
X01745Y0477D03*
X0178Y02345D03*
G54D70*
X0178Y02545D03*
G54D71*
X03818Y04805D03*
Y03584D03*
X0677D03*
Y04805D03*
G54D72*
X0572Y0288D03*
X0615Y02235D03*
X05485Y0308D03*
X05581Y02798D03*
X0548Y02695D03*
X0543Y02945D03*
G54D73*
X0469Y02195D03*
X0457Y0293D03*
M02*