%FSTAX23Y23*%
%MOIN*%
%SFA1B1*%

%IPPOS*%
%ADD27C,0.003937*%
%ADD28C,0.010000*%
%ADD29C,0.078740*%
%ADD30C,0.059055*%
%ADD31R,0.059055X0.059055*%
%ADD32C,0.060000*%
%ADD33C,0.080000*%
%ADD34C,0.118110*%
%ADD35R,0.120000X0.120000*%
%ADD36C,0.120000*%
%ADD37R,0.120000X0.120000*%
%LNdesafio_hardware_firmware_nathania-1*%
%LPD*%
G54D27*
X04342Y02806D02*
X04357D01*
X0435Y02798D02*
Y02813D01*
X02332Y04513D02*
X02747D01*
X02332Y04868D02*
X02747D01*
X02332Y04513D02*
Y04868D01*
X02747Y04513D02*
Y04868D01*
X02321Y04295D02*
X02758D01*
X02321Y04944D02*
X02758D01*
X02321Y04295D02*
Y04944D01*
X02758Y04295D02*
Y04944D01*
X0254Y046D02*
Y04639D01*
X0252Y0462D02*
X02559D01*
G54D28*
X0151Y04995D02*
X06995D01*
Y0211D02*
Y04995D01*
X0151Y0211D02*
X06995D01*
X0151D02*
Y04995D01*
G54D29*
X02969Y02485D03*
X03069D03*
X0367D03*
X0387D03*
Y03085D03*
X0367D03*
X03069D03*
X02969D03*
G54D30*
X06385Y02455D03*
Y02355D03*
X06285Y02455D03*
Y02355D03*
X06185Y02455D03*
X04015Y04825D03*
X04115D03*
X04215D03*
X04315D03*
X04415D03*
X04515D03*
X04615D03*
X04715D03*
X04815D03*
X04915D03*
X05015D03*
X05115D03*
X05215D03*
X05315D03*
X05415D03*
X05515D03*
G54D31*
X06185Y02355D03*
G54D32*
X053Y0281D03*
Y0301D03*
G54D33*
X0642Y02755D03*
X0617D03*
X0642Y0293D03*
X0617D03*
G54D34*
X0334Y04815D03*
X0354D03*
X0314D03*
G54D35*
X01945Y0477D03*
G54D36*
X01745Y0477D03*
X0178Y02345D03*
G54D37*
X0178Y02545D03*
M02*