G04 Layer_Color=255*
%FSLAX44Y44*%
%MOMM*%
G71*
G01*
G75*
%ADD27C,0.1000*%
%ADD28C,0.2540*%
%ADD29C,2.0000*%
%ADD30C,1.5000*%
%ADD31R,1.5000X1.5000*%
%ADD32C,1.5240*%
%ADD33C,2.0320*%
%ADD34C,3.0000*%
%ADD35R,3.0480X3.0480*%
%ADD36C,3.0480*%
%ADD37R,3.0480X3.0480*%
D27*
X1102900Y712750D02*
X1106900D01*
X1104900Y710750D02*
Y714750D01*
X592410Y1146480D02*
X697910D01*
X592410Y1236480D02*
X697910D01*
X592410Y1146480D02*
Y1236480D01*
X697910Y1146480D02*
Y1236480D01*
X589660Y1090980D02*
X700660D01*
X589660Y1255980D02*
X700660D01*
X589660Y1090980D02*
Y1255980D01*
X700660Y1090980D02*
Y1255980D01*
X645160Y1168480D02*
Y1178480D01*
X640160Y1173480D02*
X650160D01*
D28*
X383540Y1268730D02*
X1776730D01*
Y535940D02*
Y1268730D01*
X383540Y535940D02*
X1776730D01*
X383540D02*
Y1268730D01*
D29*
X754280Y631190D02*
D03*
X779680D02*
D03*
X932280D02*
D03*
X983080D02*
D03*
Y783590D02*
D03*
X932280D02*
D03*
X779680D02*
D03*
X754280D02*
D03*
D30*
X1621790Y623570D02*
D03*
Y598170D02*
D03*
X1596390Y623570D02*
D03*
Y598170D02*
D03*
X1570990Y623570D02*
D03*
X1019810Y1225550D02*
D03*
X1045210D02*
D03*
X1070610D02*
D03*
X1096010D02*
D03*
X1121410D02*
D03*
X1146810D02*
D03*
X1172210D02*
D03*
X1197610D02*
D03*
X1223010D02*
D03*
X1248410D02*
D03*
X1273810D02*
D03*
X1299210D02*
D03*
X1324610D02*
D03*
X1350010D02*
D03*
X1375410D02*
D03*
X1400810D02*
D03*
D31*
X1570990Y598170D02*
D03*
D32*
X1346200Y713740D02*
D03*
Y764540D02*
D03*
D33*
X1630680Y699770D02*
D03*
X1567180D02*
D03*
X1630680Y744220D02*
D03*
X1567180D02*
D03*
D34*
X848360Y1223010D02*
D03*
X899160D02*
D03*
X797560D02*
D03*
D35*
X494030Y1211580D02*
D03*
D36*
X443230D02*
D03*
X452120Y595630D02*
D03*
D37*
Y646430D02*
D03*
M02*
